# xmcd
#
# Track frame offsets:
#	150
#	12298
#	23367
#	47671
#	65232
#	86266
#	106599
#	128354
#	150507
#	170703
#	186804
#	204384
#	221210
#	241381
#	257322
#	288735
#
# Disc length: 4028 seconds
#
# Revision: 1
# Processed by: cddbd v1.5.2PL0 Copyright (c) Steve Scherf et al.
# Submitted via: audiograbber 1.83.01
#
DISCID=cf0fba10
DTITLE=Amplified - Amplified Sounds From Tasmania 2009
DYEAR=2009
DGENRE=
TTITLE0=Joe Nuttall - I Don't Drive (Feat. Enola Fall)
TTITLE1=Charles Du Cane - Judgement Day
TTITLE2=Let The Cat Out - Fantasy Town 2009
TTITLE3=James Parry - The Biggest Hurdle
TTITLE4=Silvereye - Warning The Wounded
TTITLE5=Haley Couper - One Hundred
TTITLE6=Ally Mok - The Creek Song
TTITLE7=Nathan Wheldon and The Two Timers - Falling Into You
TTITLE8=Benjafield - Waiting For You
TTITLE9=Amy Kendall - Second Storey
TTITLE10=Lincoln Le Fevre and The Insiders - Where The Poppies Used To Grow
TTITLE11=Gretel and The Teramachi - Warm Hands
TTITLE12=Silver Sonic - Light On The Hill
TTITLE13=The Sunshine Spectacular - Tonight Isn't Over
TTITLE14=Transcription Of Organ Music - The Ocean Boewl
TTITLE15=Nathan Collins - Golden Point
EXTD=
EXTT0=
EXTT1=
EXTT2=
EXTT3=
EXTT4=
EXTT5=
EXTT6=
EXTT7=
EXTT8=
EXTT9=
EXTT10=
EXTT11=
EXTT12=
EXTT13=
EXTT14=
EXTT15=
PLAYORDER=
